<svg xmlns="http://www.w3.org/2000/svg" width="256" height="256" viewBox="0 0 100 100"><rect width="100" height="100" rx="50" fill="#dab0ff"></rect><path fill="#fff" d="M70.73 23.60L70.73 23.60Q71.33 24.54 71.80 26.09Q72.27 27.64 72.27 29.45L72.27 29.45Q72.27 32.71 70.86 34.18Q69.44 35.64 67.03 35.64L67.03 35.64L57.31 35.64L57.31 75.63Q56.36 75.89 54.39 76.14Q52.41 76.40 50.34 76.40L50.34 76.40Q45.79 76.40 44.02 74.85Q42.26 73.31 42.26 69.26L42.26 69.26L42.26 35.64L29.27 35.64Q28.67 34.69 28.20 33.14Q27.73 31.60 27.73 29.79L27.73 29.79Q27.73 26.52 29.14 25.06Q30.56 23.60 32.97 23.60L32.97 23.60L70.73 23.60Z"></path></svg>